# xmcd
#
# Track frame offsets: 
#        150
#        4276
#        11500
#        18625
#        23103
#        28040
#        41630
#        53308
#        68655
#        81231
#        97599
#        108213
#        117343
#        129546
#        143212
#        155950
#        168565
#        178280
#        188732
#        199973
#        210583
#        218681
#        232076
#        232380
#        243575
#        255221
#        267020
#        278892
#        289135
#        303697
#        317060
#
# Disc length: 4378 seconds
#
# Revision: 1
# Processed by: cddbd v1.5.2PL0 Copyright (c) Steve Scherf et al.
# Submitted via: ExactAudioCopy v1.1
#
DISCID=bf11181f
DTITLE=Various Artist - The Bakersfield Sound (Bear Family) - Disc 1
DYEAR=2019
DGENRE=Country
TTITLE0=Lloyd Stalcup - The Cotton Picker's Song (mono)
TTITLE1=Homer Pierce - Darlin' Baby (mono)
TTITLE2=Jack Bryant - Sunny Cal (mono)
TTITLE3=Mary Sullivan - Sunny California (mono)
TTITLE4=Wayne Dinwiddie - Home In The Government Camp (mono)
TTITLE5=The King Family - Get Along Down To Town (mono)
TTITLE6=Lloyd Reading - Home In San Antone (mono)
TTITLE7=Bob Wills and His Texas Playboys - Opening Theme - Seven Come El
TTITLE7=even (mono)
TTITLE8=Bob Wills and His Texas Playboys - Get Along Home Cindy (mono)
TTITLE9=Elwin Cross and His Arizona Wranglers - Back In Dear Old Oklahom
TTITLE9=a (mono)
TTITLE10=The Maddox Brothers and Rose - Okie Boogie (mono)
TTITLE11=Bob Manning - Reading Your Letter With Tears In My Eyes (mono
TTITLE11=)
TTITLE12=Leon Payne - Lost Highway (mono)
TTITLE13=Tex Marshall and Bill Woods - Hittin' The Trail (mono)
TTITLE14=Leo 'Tex' Butler - When The Leaves Come Tumbling Down (mono)
TTITLE15=Bill Woods and His Orange Blossom Playboys - Have I Got A Chanc
TTITLE15=e With You (mono)
TTITLE16=The Maddox Brothers and Rose - Water Baby Blues (Water Baby B
TTITLE16=oogie) (mono)
TTITLE17=Terry Preston - (A Pretty Woman Is A) Deadly Weapon (mono)
TTITLE18=Terry Preston - I Want You So (mono)
TTITLE19=Herb Henson - Funny Book (mono)
TTITLE20=Jimmy Thomason - Honey Baby (mono)
TTITLE21=Jimmy Thomason - Your Love Was Like The Weather (mono)
TTITLE22=Hillbilly Barton - You Made Me Love You (mono)
TTITLE23=Ebb Pilling and His Ozark Squirrel Shooters - Ozark Polka (mono
TTITLE23=)
TTITLE24=Bill Woods and His Orange Blossom Playboys - A Heart Break Ago 
TTITLE24=(mono)
TTITLE25=Fuzzy and Bonnie Owens - A Dear John Letter (mono)
TTITLE26=Bill Woods and Rita Goodwin - A Dear John Letter (mono)
TTITLE27=Billy Mize with Bill Woods and His Orange Blossom Playboys - Pu
TTITLE27=san (mono)
TTITLE28=Ferlin Husky - Hank's Song (mono)
TTITLE29=Joe Maphis and Rose Lee - Dim Lights, Thick Smoke (And Loud, Lo
TTITLE29=ud Music) (mono)
TTITLE30=Jean Shepard and Ferlin Husky - A Dear John Letter (mono)
EXTD=
EXTT0=
EXTT1=
EXTT2=
EXTT3=
EXTT4=
EXTT5=
EXTT6=
EXTT7=
EXTT8=
EXTT9=
EXTT10=
EXTT11=
EXTT12=
EXTT13=
EXTT14=
EXTT15=
EXTT16=
EXTT17=
EXTT18=
EXTT19=
EXTT20=
EXTT21=
EXTT22=
EXTT23=
EXTT24=
EXTT25=
EXTT26=
EXTT27=
EXTT28=
EXTT29=
EXTT30=
PLAYORDER=
